<svg xmlns="http://www.w3.org/2000/svg" viewBox="0 0 74.2 81.49"><defs><style>.cls-1{fill:#005fff}</style></defs><g id="Layer_2" data-name="Layer 2"><g id="Layer_1-2" data-name="Layer 1"><path class="cls-1" d="M36.19.39 7.48 17a2.91 2.91 0 0 0 0 5.05L35.09 38A2.93 2.93 0 0 0 38 38l28.72-16.61a2.93 2.93 0 0 0 0-5.06L39.11.39a2.93 2.93 0 0 0-2.92 0ZM69.82 27.59 41.11 44.17a2.91 2.91 0 0 0-1.46 2.52v31.88A2.92 2.92 0 0 0 44 81.1l28.74-16.58A2.91 2.91 0 0 0 74.2 62V30.12a2.92 2.92 0 0 0-4.38-2.53ZM32 44.17 4.38 28.23A2.92 2.92 0 0 0 0 30.76v31.87a2.92 2.92 0 0 0 1.46 2.53L29.07 81.1a2.92 2.92 0 0 0 4.38-2.53V46.69A2.91 2.91 0 0 0 32 44.17Z"/></g></g></svg>