<svg version="1.1" id="Layer_1" xmlns="http://www.w3.org/2000/svg" x="0" y="0" viewBox="0 0 60 69" style="enable-background:new 0 0 60 69" xml:space="preserve"><style>.st0{fill:#005fff}</style><path class="st0" d="M5.3 36.5h.8c2.9 0 5.3 2.4 5.3 5.3V63c0 2.9-2.4 5.3-5.3 5.3h-.8C2.4 68.4 0 66 0 63V41.8c0-3 2.4-5.3 5.3-5.3zM29.6 0h.8c2.9 0 5.3 2.4 5.3 5.3V63c0 2.9-2.4 5.3-5.3 5.3h-.8c-2.9 0-5.3-2.4-5.3-5.3V5.3c0-2.9 2.4-5.3 5.3-5.3zM53.9 20.5h.8c2.9 0 5.3 2.4 5.3 5.3V63c0 2.9-2.4 5.3-5.3 5.3h-.8c-2.9 0-5.3-2.4-5.3-5.3V25.8c0-2.9 2.4-5.3 5.3-5.3z"/></svg>