<svg xmlns="http://www.w3.org/2000/svg" viewBox="0 0 821.39 81.49"><defs><style>.cls-1{fill:#005fff;}</style></defs><g id="Layer_2" data-name="Layer 2"><g id="Layer_1-2" data-name="Layer 1"><path class="cls-1" d="M159.66,8.59V22.38H140.47V72.64H123.75V22.38h-19V8.59Z"/><path class="cls-1" d="M204.89,72.64l-9.32-17.73H183.14V72.64H166.42v-64H195.2c17,0,26.68,8.22,26.68,22.47,0,9.69-4,16.82-11.42,20.65L223.8,72.64ZM183.14,41.57h12.15c6.77,0,10.7-3.47,10.7-10,0-6.3-3.93-9.68-10.7-9.68H183.14Z"/><path class="cls-1" d="M275.25,61.3H247.56l-4.48,11.34H225.91l27.5-64h17.18l26.86,64.05H279.63Zm-4.94-12.79-8.77-22.84-9,22.84Z"/><path class="cls-1" d="M331.9,22.29c-9.87,0-17.36,7.77-17.36,18S322,58.47,331.9,58.47c5.3,0,11.42-2.92,15.9-7.49l9.77,10.51c-6.85,7.22-17.08,11.88-26.58,11.88-19.28,0-33.63-14.07-33.63-32.9,0-18.45,14.71-32.34,34.26-32.34a36.73,36.73,0,0,1,25.86,11L347.8,30.7C343.59,25.58,337.47,22.29,331.9,22.29Z"/><path class="cls-1" d="M406.28,72.64,389.65,47.88,381.42,57V72.64H364.7v-64h16.72V35.45l24-26.86h19.37L401.07,35.08l25.21,37.56Z"/><path class="cls-1" d="M487.32,24.76c0,6.67-4.29,12.06-11.05,13.89,8.13,1.64,13.16,8,13.16,16.17,0,11-9.6,17.82-24.67,17.82H433.14v-64h30.43C478.1,8.59,487.32,14.89,487.32,24.76Zm-17.17,2.92c0-3.84-2.84-6.12-7.5-6H449.86V34.08h12.79C467.31,34.08,470.15,31.7,470.15,27.68Zm2,25c0-4-3.66-6.58-9.51-6.49H449.86V59.66h12.79C468.5,59.66,472.16,57.1,472.16,52.72Z"/><path class="cls-1" d="M563.71,40.56c0,18.74-14.8,32.81-34.63,32.81S494.45,59.3,494.45,40.56s14.8-32.43,34.63-32.43S563.71,22,563.71,40.56Zm-52.08.1c0,10.41,8.13,18.45,17.63,18.45s17.27-8,17.27-18.45-7.67-18.28-17.27-18.28S511.63,30.24,511.63,40.66Z"/><path class="cls-1" d="M619.27,8.59V22.38H600.08V72.64H583.36V22.38h-19V8.59Z"/><path class="cls-1" d="M677.15,11.19a34,34,0,0,0-13.81-2.56H640.21v64.1h5.59V52.08h17.54a33.87,33.87,0,0,0,13.81-2.57,19.93,19.93,0,0,0,9-7.49,21.11,21.11,0,0,0,3.15-11.62,21.27,21.27,0,0,0-3.15-11.77A20.2,20.2,0,0,0,677.15,11.19ZM645.8,13.76h17.54c6.64,0,11.73,1.46,15.14,4.35s5.1,7,5.1,12.29-1.71,9.33-5.1,12.2S670,47,663.34,47H645.8Z"/><path class="cls-1" d="M734.8,49.47a20.5,20.5,0,0,0,9-7.49A20.9,20.9,0,0,0,746.9,30.4a21.27,21.27,0,0,0-3.14-11.77,20.2,20.2,0,0,0-9-7.44A34.1,34.1,0,0,0,721,8.63H697.86v64.1h5.58V52.08H721a42,42,0,0,0,5.86-.39l15.08,21h6.44l-16-22.32A25,25,0,0,0,734.8,49.47ZM703.44,13.76H721c6.64,0,11.74,1.46,15.15,4.35s5.1,7,5.1,12.29-1.72,9.35-5.11,12.24S727.62,47,721,47H703.44Z"/><path class="cls-1" d="M818.87,27.72A31.49,31.49,0,0,0,801.29,10.6a37.15,37.15,0,0,0-26.43,0,32.07,32.07,0,0,0-10.62,6.87,31.35,31.35,0,0,0-7,10.35,33.11,33.11,0,0,0-2.47,12.86,33.1,33.1,0,0,0,2.47,12.85,31.39,31.39,0,0,0,7,10.36,32.1,32.1,0,0,0,10.62,6.86,37.15,37.15,0,0,0,26.43,0,31.49,31.49,0,0,0,17.58-17.12,32.86,32.86,0,0,0,2.52-13A32.91,32.91,0,0,0,818.87,27.72ZM788.07,68a29.08,29.08,0,0,1-11-2,26.41,26.41,0,0,1-14.65-14.42,27.84,27.84,0,0,1-2.08-10.81,27.7,27.7,0,0,1,2.08-10.86,26.51,26.51,0,0,1,14.65-14.38,30.65,30.65,0,0,1,22,0,26,26,0,0,1,8.76,5.75,27,27,0,0,1,5.8,8.63,27.73,27.73,0,0,1,2.08,10.86,27.84,27.84,0,0,1-2.08,10.81,26.78,26.78,0,0,1-5.8,8.67,25.81,25.81,0,0,1-8.76,5.75A29.1,29.1,0,0,1,788.07,68Z"/><path class="cls-1" d="M36.19.39,7.48,17a2.91,2.91,0,0,0,0,5.05L35.09,38A2.93,2.93,0,0,0,38,38L66.72,21.39a2.93,2.93,0,0,0,0-5.06L39.11.39A2.93,2.93,0,0,0,36.19.39Z"/><path class="cls-1" d="M69.82,27.59,41.11,44.17a2.91,2.91,0,0,0-1.46,2.52V78.57A2.92,2.92,0,0,0,44,81.1L72.74,64.52A2.91,2.91,0,0,0,74.2,62V30.12A2.92,2.92,0,0,0,69.82,27.59Z"/><path class="cls-1" d="M32,44.17,4.38,28.23A2.92,2.92,0,0,0,0,30.76V62.63a2.92,2.92,0,0,0,1.46,2.53L29.07,81.1a2.92,2.92,0,0,0,4.38-2.53V46.69A2.91,2.91,0,0,0,32,44.17Z"/></g></g></svg>