<?xml version="1.0" encoding="utf-8"?>
<!-- Generator: Adobe Illustrator 26.1.0, SVG Export Plug-In . SVG Version: 6.00 Build 0)  -->
<svg version="1.1" id="Layer_1" xmlns="http://www.w3.org/2000/svg" xmlns:xlink="http://www.w3.org/1999/xlink" x="0px" y="0px"
	 viewBox="0 0 60 69" style="enable-background:new 0 0 60 69;" xml:space="preserve">
<style type="text/css">
	.st0{fill:#005FFF;}
</style>
<path class="st0" d="M5.3,36.5h0.8c2.9,0,5.3,2.4,5.3,5.3V63c0,2.9-2.4,5.3-5.3,5.3H5.3C2.4,68.4,0,66,0,63V41.8
	C0,38.8,2.4,36.5,5.3,36.5z"/>
<path class="st0" d="M29.6,0h0.8c2.9,0,5.3,2.4,5.3,5.3V63c0,2.9-2.4,5.3-5.3,5.3h-0.8c-2.9,0-5.3-2.4-5.3-5.3V5.3
	C24.3,2.4,26.7,0,29.6,0z"/>
<path class="st0" d="M53.9,20.5h0.8c2.9,0,5.3,2.4,5.3,5.3V63c0,2.9-2.4,5.3-5.3,5.3h-0.8c-2.9,0-5.3-2.4-5.3-5.3V25.8
	C48.6,22.9,51,20.5,53.9,20.5z"/>
</svg>
